<svg width="38" height="37" viewBox="0 0 38 37" fill="none" xmlns="http://www.w3.org/2000/svg">
<path d="M35.5571 8.78766C34.8913 9.45349 34.245 10.0997 34.2254 10.746C34.1667 11.3727 34.8325 12.0189 35.4592 12.626C36.3992 13.6052 37.3196 14.4864 37.2804 15.446C37.2413 16.4056 36.2425 17.4043 35.2437 18.3835L27.1558 26.491L24.375 23.7102L32.6979 15.4068L30.8179 13.5268L28.0371 16.2881L20.6933 8.94432L28.2133 1.44391C28.9771 0.680156 30.25 0.680156 30.9746 1.44391L35.5571 6.02641C36.3208 6.75099 36.3208 8.02391 35.5571 8.78766ZM0.875 28.7822L19.5967 10.041L26.9404 17.3847L8.21875 36.126H0.875V28.7822Z" fill="#01ABFF"/>
</svg>
