<svg width="365" height="413" viewBox="0 0 365 413" fill="none" xmlns="http://www.w3.org/2000/svg">
<path d="M151.745 287.25C197.784 287.25 235.139 251.181 235.139 206.649C235.139 162.117 197.784 126.048 151.745 126.048C105.705 126.048 68.3511 162.117 68.3511 206.649C68.3511 251.181 105.705 287.25 151.745 287.25Z" stroke="#320361" stroke-opacity="0.22" stroke-width="1.07414"/>
<path d="M152.256 338.649C227.391 338.649 288.331 279.789 288.331 207.143C288.331 134.498 227.391 75.6378 152.256 75.6378C77.1222 75.6378 16.1822 134.498 16.1822 207.143C16.1822 279.789 77.1222 338.649 152.256 338.649Z" stroke="#320361" stroke-opacity="0.22" stroke-width="1.07414"/>
<path d="M151.745 377.198C249.194 377.198 328.224 300.858 328.224 206.649C328.224 112.44 249.194 36.1002 151.745 36.1002C54.2953 36.1002 -24.7348 112.44 -24.7348 206.649C-24.7348 300.858 54.2953 377.198 151.745 377.198Z" stroke="#320361" stroke-opacity="0.22" stroke-width="1.07414"/>
<path d="M151.745 411.793C268.967 411.793 364.027 319.964 364.027 206.649C364.027 93.3337 268.967 1.50468 151.745 1.50468C34.5223 1.50468 -60.5371 93.3337 -60.5371 206.649C-60.5371 319.964 34.5223 411.793 151.745 411.793Z" stroke="#320361" stroke-opacity="0.22" stroke-width="1.07414"/>
<circle cx="6.71316" cy="6.71316" r="6.71316" transform="matrix(-1 0 0 1 44.7256 25.9209)" fill="#01ABFF"/>
</svg>
