<?xml version="1.0" encoding="UTF-8"?>
<!DOCTYPE svg PUBLIC "-//W3C//DTD SVG 1.1//EN" "http://www.w3.org/Graphics/SVG/1.1/DTD/svg11.dtd">
<!-- Creator: CorelDRAW -->
<svg xmlns="http://www.w3.org/2000/svg" xml:space="preserve" width="500px" height="500px" version="1.1" style="shape-rendering:geometricPrecision; text-rendering:geometricPrecision; image-rendering:optimizeQuality; fill-rule:evenodd; clip-rule:evenodd"
viewBox="0 0 21000 29700"
 xmlns:xlink="http://www.w3.org/1999/xlink"
 xmlns:xodm="http://www.corel.com/coreldraw/odm/2003">
 <defs>
  <style type="text/css">
   <![CDATA[
    .str0 {stroke:#ddd;stroke-width:9;stroke-linejoin:bevel;stroke-miterlimit:22.9256}
    .fil0 {fill:#ffffff}
    .fil1 {fill:#ffffff}
    .fil2 {fill:rgba(0,175,255,0.03)}
    .fil3 {fill:#7302ff}
    .fil4 {fill:#f4b904}
    .fil5 {fill:#FFC27A}
   ]]>
  </style>
 </defs>
 <g id="Layer_x0020_1">
  <metadata id="CorelCorpID_0Corel-Layer"/>
  <g id="tom_x0020_and_x0020_jerry_x0020_cliparts--tom_x0020_and_x0020_jerry-cartoons-cliparts-kids.dxf">
   <path class="fil2 str0" d="M19312.92 9140.8c-1133.76,2849.51 -245.74,5480.28 -2785.29,6946.77 0,0 0,0 0,0 -758.1,437.77 -658.95,-117.27 -1102.64,-165.41 0,0 0,0 0,0 222.61,535.87 1064.59,846.18 1496.45,1275.43 0,0 0,0 0,0 282.29,280.61 604.82,635.31 691.25,1027.92 0,0 0,0 0,0 -438.96,-122.8 -632.14,-723.44 -1592.78,-513.21 0,0 0,0 0,0 107.29,148.71 408.08,356.44 563.54,536.07 0,0 0,0 0,0 0,0 375.35,517.41 375.35,517.41 0,0 0,0 0,0 88.43,185.95 63.18,-83.2 51.14,219.2 0,0 0,0 0,0 -217.29,-123.77 -261.07,-262.26 -595.22,-391.07 0,0 0,0 0,0 -527.79,-203.44 -1207.42,-265.64 -1764.05,-119.15 0,0 0,0 0,0 -230.73,60.73 -573.53,168.79 -654.85,386.62 0,0 0,0 0,0 0,0 1039.98,96.93 1039.98,96.93 0,0 0,0 0,0 -799,140.43 -1017.24,71.06 -1684.47,408.43 0,0 0,0 0,0 -312.96,158.22 -1103.34,597.45 -1242.09,819.82 0,0 0,0 0,0 288.99,525.09 1031.6,641.33 1379.68,1127.79 0,0 0,0 0,0 526.36,-172.09 1186.66,-1227.63 1687.56,-1230.29 0,0 0,0 0,0 -367.53,342.87 -1481.24,1175.92 -1479.07,1698.46 0,0 0,0 0,0 0.19,44.88 38.48,892.03 38.63,892.4 0,0 0,0 0,0 0,0 233.98,-713.66 233.98,-713.66 0,0 0,0 0,0 603.15,233.66 1016.42,936.53 616.74,1485.44 0,0 0,0 0,0 -395.33,-29.07 -222.27,-152.71 -419.61,-477.09 0,0 0,0 0,0 -251.76,131.61 -308.01,327.98 -644.37,299.78 0,0 0,0 0,0 -276.33,-23.18 -434.21,-228.86 -674.11,-198.51 0,0 0,0 0,0 49.74,396.51 881.67,321.48 1163.52,654.92 0,0 0,0 0,0 687.06,812.81 -423.92,2043.31 -539.91,795.04 0,0 0,0 0,0 -27.75,-298.79 -85.2,-595.03 -325.55,-693.51 0,0 0,0 0,0 -654.84,-268.29 -1693.67,-332.27 -2543.69,-1379.41 0,0 0,0 0,0 -217,-267.34 -647.32,-947.82 -627.52,-1358.03 0,0 0,0 0,0 -434.97,26.41 -1111.69,402.15 -2220.74,514.86 0,0 0,0 0,0 -402.37,40.89 -859.91,-54.74 -1086.76,159.96 0,0 0,0 0,0 -686.99,650.22 -2207.1,1504.77 -2779.29,452.4 0,0 0,0 0,0 -401.44,-738.36 -239.99,-1808.23 -647.74,-2150.17 0,0 0,0 0,0 67.88,222 140.79,345.07 184.19,609.09 0,0 0,0 0,0 -514.84,-317.53 -1310.85,-1208.01 -1667.71,-1671.76 0,0 0,0 0,0 -655.57,-851.94 -1482.72,-1807.7 -1581.01,-2923.02 0,0 0,0 0,0 -38.47,-436.39 106.72,-591.54 162.96,-939.35 0,0 0,0 0,0 -187.4,69.96 -206.44,183.65 -376.38,262.1 0,0 0,0 0,0 206.86,-621.51 548.15,-531.7 941.67,-823.43 0,0 0,0 0,0 0,0 -378.62,-56.84 -378.62,-56.84 0,0 0,0 0,0 750.27,-238.22 1043.54,103.81 1653.09,319.2 0,0 0,0 0,0 3.25,-1551.64 93.63,-3137.82 903.11,-4432.71 0,0 0,0 0,0 222.31,-355.61 479,-829.98 953.21,-837.06 0,0 0,0 0,0 0,0 286.77,359.1 286.77,359.1 0,0 0,0 0,0 0,0 -39.16,-737.11 -39.16,-737.11 0,0 0,0 0,0 511.32,-563.48 440.52,-251.06 447.26,-1366.01 0,0 0,0 0,0 0,0 -519.94,7.37 -519.94,7.37 0,0 0,0 0,0 0,0 431.32,-129.21 431.32,-129.21 0,0 0,0 0,0 184.07,-685.05 -636.95,-1966.89 -1045.88,-2469.8 0,0 0,0 0,0 -186.3,-229.12 -392.63,-362.49 -563.39,-589.16 0,0 0,0 0,0 568.07,-3.23 1206.82,493.46 1663.76,741.87 0,0 0,0 0,0 714.43,385.09 2300.54,1643.99 2588.58,2156.99 0,0 0,0 0,0 -138.31,67.09 -54.31,-26.66 -213.96,94.65 0,0 0,0 0,0 215.56,94.52 1747.06,269.2 1919.17,202.08 0,0 0,0 0,0 0,0 -161.66,-178.42 -161.66,-178.42 0,0 0,0 0,0 -499.53,-413.65 -1541.75,-833.3 -1688.75,-970.21 0,0 0,0 0,0 1025.84,182.13 1876.97,722.74 2684.68,1216.91 0,0 0,0 0,0 245.77,150.36 638.22,303.2 727.73,585.04 0,0 0,0 0,0 -311.29,41.43 -372.01,166.77 -574.29,208.59 0,0 0,0 0,0 718.16,-49.11 2734.41,-1011.82 3699.18,-1406.64 0,0 0,0 0.01,0 1917.13,-784.45 5350.48,-1668.13 7361.68,-1011.87 0,0 0,0 0,0 -151.85,25.89 -106.77,-0.98 -106.47,103.42 0,0 0,0 0,0 -879.49,-188.34 -3001.72,432.82 -3756.79,716.54 0,0 0,0 0,0 -1193.46,448.44 -1959.83,904.68 -2965.42,1617.44 0,0 0,0 0,0 -588.79,417.34 -1847.79,1633.82 -2016.71,2496.86 0,0 0,0 0,0 -245.25,1252.91 1104.57,1501.42 2274.28,783.49 0,0 0,0 0,0 260.78,-160.19 239.21,-139.66 325.23,-310.84 0,0 0,0 0,0 -534.87,181.14 -842.46,613.69 -1575.52,603.96 0,0 0,0 0,0 -654.31,-8.66 -1022.03,-518.89 -838.6,-1196.6 0,0 0,0 0,0 220.88,-816.08 1465.17,-1915.92 2005.83,-2325.29 0,0 0,0 0,0 842.83,-638.16 1858.96,-1126.93 2828.05,-1503.15 0,0 0,0 0,0 689.93,-267.86 2730.28,-831.79 3600.55,-702.97 0,0 0,0 0,0 0,0 -601.3,33.11 -601.3,33.11 0,0 0,0 0,0 181.8,283.37 112.51,303.18 271.89,649.05 0,0 0,0 0,0 123.06,-110.12 203.57,-234.37 383.87,-291.9 0,0 0,0 0,0 -215.39,379.03 -924.65,597.13 -1554.58,2180.35z"/>
   <path class="fil1 str0" d="M14951.86 13463.91c1166.04,2604.35 -1225.37,4070.18 -1748.86,3677.65 0,0 0,0 0,0 650.29,-218.47 784.23,-206.68 1238.98,-660.64 0,0 0,0 0,0 832.78,-831.31 1046.86,-3170.95 -600.8,-3743.83 0,0 0,0 0,0 -57.23,-339.18 813.64,63.39 1110.68,726.82z"/>
   <path class="fil1 str0" d="M14100.73 12355.85c356.45,-228.06 580.71,-430.44 745.89,-458.13 0,0 0,0 0,0 -176.15,282.07 -416.76,343.16 -490.78,497.14 0,0 0,0 0,0 356.48,-20.24 735.48,70.11 1013.95,255.97 0,0 0,0 0,0 -133.32,55.75 -1177.77,-158.52 -1349.42,-237.38 0,0 0,0 0,0 0,0 80.36,-57.6 80.36,-57.6z"/>
   <path class="fil1 str0" d="M14758.19 12759.18c206.72,-0.41 377.01,3.35 583.15,26.74 0,0 0,0 0,0 306.72,34.84 304.33,29.28 380.11,234.56 0,0 0,0 0,0 0,0 -664.67,-146.81 -664.67,-146.81 0,0 0,0 0,0 160.37,251.47 316.52,355.63 279.21,778.39 0,0 0,0 0,0 -188.45,-83.84 -160.53,-95.08 -238.85,-229.76 0,0 0,0 0,0 0,0 118.68,-59.33 118.68,-59.33 0,0 0,0 0,0 -155.57,-271.07 -326.77,-381.45 -457.63,-603.79z"/>
   <path class="fil1 str0" d="M13453.69 15318.45c-192.86,102.74 -292.37,176.1 -532.09,189.4 0,0 0,0 0,0 -1578.87,87.54 -572.96,-2283.42 474.45,-2575 0,0 0,0 0,0 -247.48,310.2 -939.93,719.53 -1140.08,1485.74 0,0 0,0 0,0 -359.81,1377.34 1143.85,884.35 1197.72,899.86z"/>
   <path class="fil1 str0" d="M11656.08 13999.18c731.02,-533.15 1189.03,-1226.53 1968.33,-1395.32 0,0 0,0 0,0 -88.72,192.02 -110.5,109.19 -312.54,200.82 0,0 0,0 0,0 -471.88,214.01 -1278.91,1281.02 -1950.8,1463.71 0,0 0,0 0,0 51.51,-61.52 212.12,-201.27 295.01,-269.21z"/>
   <path class="fil1 str0" d="M13452.68 15437.68c-97.88,321.73 -189.91,101.86 -451.58,477.09 0,0 0,0 0,0 189.07,747.09 -27.48,1711.11 -523.4,2229.1 0,0 0,0 0,0 -257.53,268.99 -363.21,266.78 -466.54,361.29 0,0 0,0 0,0 -22.3,-375.61 258.98,-73.26 676.92,-1101.08 0,0 0,0 0,0 525.08,-1291.26 -326.1,-1426.42 764.6,-1966.4z"/>
   <path class="fil1 str0" d="M13453.69 15318.45c142.39,-32.91 96.82,-5.42 122.07,2.87 0,0 0,0 0,0 -79.65,145.13 -62.88,86.15 -123.08,116.36 0,0 0,0 0,0 0,0 1.01,-119.23 1.01,-119.23z"/>
   <path class="fil1 str0" d="M9602.61 13770.76c88.64,-62.24 1542.14,-100.11 1846.35,244.46 0,0 0,0 0,0 -358.95,2.86 -507.08,-177.86 -961.18,-177.85 0,0 0,0 0,0 -39.18,-0.54 -832.67,0.14 -850.24,-42.86 0,0 0,0 0,0 -6.62,-16.17 -23.32,-15.8 -34.93,-23.75z"/>
   <path class="fil1 str0" d="M8862.84 13313.08c2.14,4.89 0.61,1.75 0,0z"/>
   <path class="fil1 str0" d="M8914.89 13036.78c297.81,97.47 830.15,98 1228.89,561.94 0,0 0,0 0,0 -428.32,-71.02 -591.18,-482.33 -1227.02,-448.16 0,0 0,0 0,0 -1.6,287.34 307.71,379.56 406.94,893.67 0,0 0,0 0,0 -156.58,-133.51 -460.86,-731.15 -460.86,-731.15 0,0 0,0 0,0 0,0 -72.23,-168.12 -72.23,-168.12 0,0 0,0 0,0 42.96,-104.99 51.51,-45.94 124.28,-108.18z"/>
   <path class="fil1 str0" d="M10121 14003.84c273.56,-62.22 515,-77.85 735.37,12 0,0 0,0 0,0 -202.44,112.82 -581.66,43.58 -935.38,92.71 0,0 0,0 0,0 90.03,-120.03 -128.84,-29.91 200.01,-104.71z"/>
   <path class="fil1 str0" d="M9017.56 9383.54c218.96,390.53 81.35,1152.22 57.36,952.89 0,0 0,0 0,0 0,0 -57.36,-952.89 -57.36,-952.89z"/>
   <path class="fil1 str0" d="M10626.01 14564.26c-77.23,30.86 150.77,122.16 -104.21,11.15 0,0 0,0 0,0 0,0 -211.26,-313.25 -211.26,-313.25 0,0 0,0 0,0 261.89,65.8 342.6,128.11 315.47,302.1z"/>
   <path class="fil1 str0" d="M10274.3 14422.85c233.26,429.08 187.09,281.69 96.44,469.92 0,0 0,0 0,0 -81.4,-82.44 -136.05,-197.52 -202.47,-259.11 0,0 0,0 0,0 -90.58,-84 -143.33,-83.39 -274.85,-180.46 0,0 0,0 0,0 0,0 380.88,-30.35 380.88,-30.35z"/>
   <path class="fil1 str0" d="M8632.31 14608.58c214.15,-233.79 907.83,-694.88 1367.35,-355.45 0,0 0,0 0,0 -117.18,128.49 -173.3,125.24 -323.84,195.88 0,0 0,0 0,0 -1658.02,778.03 -890.93,2038.89 -1068.62,2516.22 0,0 0,0 0,0 -228.75,-461.11 -238.02,-1131.35 -47.14,-1605.55 0,0 0,0 0,0 139.78,-347.23 331.23,-565.23 652.7,-777.07 0,0 0,0 0,0 28.56,-18.84 148.56,-89.33 148.69,-89.43 0,0 0,0 0,0 0,0 -729.14,115.4 -729.14,115.4z"/>
   <path class="fil1 str0" d="M9600.43 15496.56c43.28,441.19 181.61,469.1 -168.86,774.27 0,0 0,0 0,0 38.57,169.53 104.31,313.88 95.12,522.06 0,0 0,0 0,0 -283.4,-404.69 -207.41,-795.54 -46.54,-1234.19 0,0 0,0 0,0 -119.74,-183.34 -210.77,-188.07 -228.72,-466.57 0,0 0,0 0,0 118.49,97.81 230.3,298.12 349,404.43z"/>
   <path class="fil1 str0" d="M8704.56 8795.34c224.58,753.44 -294.45,2366.82 -583.77,2563.68 0,0 0,0 0,0 161.73,-664.01 256.22,-1414.33 66.55,-2040.84 0,0 0,0 0,0 -311.6,-1029.14 -1101.21,-233.86 -1378.29,-66.34 0,0 0,0 0,0 182.49,-700.52 1590.26,-1480.57 1895.51,-456.5z"/>
   <path class="fil1 str0" d="M10280.06 16896.63c65.5,-206.26 1203.1,-652.08 1378.59,-643.4 0,0 0,0 0,0 -183.51,157.02 -1137.24,597.98 -1378.59,643.4z"/>
   <path class="fil1 str0" d="M11381.07 16843.35c428.71,421.55 161.52,1315.81 -256.82,1505.01 0,0 0,0 0,0 45.43,-338.17 237.52,-245.42 334.32,-690.18 0,0 0,0 0,0 70.89,-325.69 -51.33,-564.72 -77.5,-814.83z"/>
   <path class="fil1 str0" d="M10881.64 17979.52c-10.81,292.99 -155.86,426.82 -155.84,427.65 0,0 0,0 0,0 0,0 -23.05,-570.98 -23.05,-570.98 0,0 0,0 0,0 -165.07,163.58 -211.32,178.94 -274.69,465.2 0,0 0,0 0,0 -21.37,-11.2 -236.35,-307.64 -246.26,161.95 0,0 0,0 0,0 -7.66,362.94 240.81,413.47 -228.11,414.5 0,0 0,0 0,0 -168.52,-250.5 -117.44,-362.2 -374.83,-628.38 0,0 0,0 0,0 -154.65,-159.93 -347.43,-304.09 -495.65,-458.69 0,0 0,0 0,0 0,0 574.07,-96.99 574.07,-96.99 0,0 0,0 0,0 44.84,-145.48 -13.29,-81.42 -51.96,-213.58 0,0 0,0 0,0 364.4,-50.31 441.35,-109.44 466.98,-516.13 0,0 0,0 0,0 601.69,193.1 949.65,-507.99 1385.14,-277.43 0,0 0,0 0,0 -813.95,184.89 -538,252.85 -575.8,1292.88z"/>
   <path class="fil1 str0" d="M7146.37 14488.81c143.49,-341.66 629.5,-745.88 1040.76,-880.54 0,0 0,0 0,0 -80.42,178.99 -8.64,71.36 -259.16,221.21 0,0 0,0 0,0 -399.07,238.73 -499.34,490.84 -781.6,659.33z"/>
   <path class="fil1 str0" d="M9605.56 14909.19c150.71,327.45 -94.91,329.07 225.28,655.9 0,0 0,0 0,0 205.43,209.69 191.67,404.07 179.09,723.49 0,0 0,0 0,0 340.24,-143.51 89.83,-264.61 474.82,-324.74 0,0 0,0 0,0 -127.75,164.76 -161.01,127.3 -302.87,353.62 0,0 0,0 0,0 -104.53,166.78 -85.61,284.98 -272.9,353.7 0,0 0,0 0,0 32.55,-417.03 58.65,-937.8 -308.55,-1174.6 0,0 0,0 0,0 -13.92,-244.66 -96.09,-361.64 5.13,-587.37z"/>
   <path class="fil1 str0" d="M8905.17 15636.1c73.85,449.15 345.24,614.95 232.38,1046.99 0,0 0,0 0,0 -30.47,116.61 -31.42,67.81 -77.45,126.91 0,0 0,0 0,0 -7.1,-506.45 81.07,-610.46 -193.59,-779.19 0,0 0,0 0,0 53.5,338.41 45.08,395.84 -160.38,536.12 0,0 0,0 0,0 -6.63,-377.52 40.96,-693.4 199.04,-930.83z"/>
   <path class="fil1 str0" d="M8300.21 17380.18c111.8,-205.5 -20.37,-146.18 231.47,-227.27 0,0 0,0 0,0 -212.41,403.67 -95.71,485.88 320.38,656.22 0,0 0,0 0,0 -278.51,139.92 -498.91,-169.18 -551.85,-428.95z"/>
   <path class="fil1 str0" d="M9032.14 17042.33c60.75,-44.36 749.41,-171.3 847.82,-156.35 0,0 0,0 0,0 -231.61,128.07 -458.84,357.32 -847.82,156.35z"/>
   <path class="fil1 str0" d="M7410.74 14615.5c0,0 177.81,-125.46 177.81,-125.46 0,0 0,0 0,0 -80.78,101.59 -35.89,79.89 -177.81,125.46z"/>
   <path class="fil1 str0" d="M7384.03 14648.05c-409.54,436.46 -653.13,402.2 -1079.78,1178.9 0,0 0,0 0,0 -143.79,261.76 -121.92,362.29 -184.97,513.17 0,0 0,0 0,0 0,0 -538.8,-29.24 -538.8,-29.24 0,0 0,0 0,0 -112.87,-906.39 308.74,-2101.62 1104.59,-1993.74 0,0 0,0 0,0 123.77,225.34 104.84,327.54 167.58,550.99 0,0 0,0 0,0 1.87,-7.69 8.38,29.25 15.13,42.81 0,0 0,0 0,0 254.45,-119.01 256.89,-243.16 542.96,-295.44 0,0 0,0 0,0 -8.73,11 -21.06,26.29 -26.71,32.55z"/>
   <path class="fil1 str0" d="M6771.32 10713.14c1663.82,-697.81 489.22,3010.94 278.3,3250.9 0,0 0,0 0,0 43.32,-467.2 605.45,-1749.26 486.94,-2739.98 0,0 0,0 0,0 -152.02,-1271.06 -1527.25,154.8 -1716.45,381.85 0,0 0,0 0,0 -952.82,1143.31 -1655.8,3579.07 -1033.83,4797.85 0,0 0,0 0,0 -315.85,-203.94 -203.85,-169.11 -261.37,-578.98 0,0 0,0 0,0 -111.22,-792.47 -17.17,-1488.9 190.97,-2239.54 0,0 0,0 0,0 286.16,-1032.03 1070.56,-2459.03 2055.44,-2872.1z"/>
   <path class="fil1 str0" d="M5888.06 7810.42c0,0 1049.95,150.64 1049.95,150.64 0,0 0,0 0,0 -878.96,130.44 -1736.68,685.69 -2009.47,695.48 0,0 0,0 0,0 72.81,-198.7 70.23,-151 262.63,-237.46 0,0 0,0 0,0 390.7,-175.59 748.96,-257.71 994.29,-365.72 0,0 0,0 0,0 0,0 -1323.42,-164.33 -1323.42,-164.33 0,0 0,0 0,0 219.84,-154.11 723.2,-98.63 1026.02,-78.61z"/>
   <path class="fil1 str0" d="M6037.89 13957.35c157.49,-246.65 338.36,-248.21 672.7,-224.63 0,0 0,0 0,0 87.9,192.98 292.13,352.25 149.8,566.84 0,0 0,0 0,0 -124.67,-354.9 12.27,-301.72 -289.34,-512.5 0,0 0,0 0,0 -304.95,16.03 -297.01,111.87 -533.16,170.29z"/>
   <path class="fil1 str0" d="M8649.88 18105.84c419.49,346.72 894.61,394.52 1057.48,615.01 0,0 0,0 0,0 -1086.33,-135.05 -2270.46,-1407.13 -1351.69,-1677.75 0,0 0,0 0,0 -170.15,406.59 -363.25,519.3 294.21,1062.74z"/>
   <path class="fil1 str0" d="M8282.2 18336.06c262.03,-273.15 307.81,341.95 1173.89,508.15 0,0 0,0 0,0 0,0 284.65,125.37 284.65,125.37 0,0 0,0 0,0 -883.73,-25.84 -752.69,-308.62 -1363.15,-578.21 0,0 0,0 0,0 -10.43,286.65 134.97,381.81 29.21,604.07 0,0 0,0 0,0 -122.01,256.42 -221.26,202.72 -315.69,561.69 0,0 0,0 0,0 0,0 378.97,227.06 378.97,227.06 0,0 0,0 0,0 300.73,-98.46 352.96,-305.25 652.78,-456.11 0,0 0,0 0,0 187.28,54.32 254.08,108.43 406.44,159.93 0,0 0,0 0,0 199.44,67.4 176.97,-5.2 330.27,141.6 0,0 0,0 0,0 47.51,210.7 26.19,823.51 -39.97,1136.24 0,0 0,0 0,0 -153.97,-197.38 -98.88,-841.61 -104.45,-1117.51 0,0 0,0 0,0 -255.47,-61.5 -383.49,-172.45 -651.62,-170.33 0,0 0,0 0,0 -220.3,162.14 -329.29,399.56 -652.8,469.9 0,0 0,0 0,0 -152.37,-116.48 -195.54,-157.26 -410.81,-294.42 0,0 0,0 0,0 -22.54,-353.96 164.69,-560.13 351.01,-744.5 0,0 0,0 0,0 -23.8,-188.48 -168.71,-468.71 -68.73,-572.93z"/>
   <path class="fil1 str0" d="M7762.14 16918.73c156.58,424.46 -262,1577.92 -393.08,2039.5 0,0 0,0 0,0 -1557.41,-310.24 -1833.71,755.73 -2250.19,1801.95 0,0 0,0 0,0 37.41,-563.68 284.85,-868.07 441.76,-1297.02 0,0 0,0 0,0 -794.91,152.68 -1229.17,1206.81 -1063.32,1903.45 0,0 0,0 0,0 74.65,313.56 302.9,340.25 334.24,575.55 0,0 0,0 0,0 -818.33,6.72 -752.74,-1100.83 -1112.87,-2046.99 0,0 0,0 0,0 -559.15,-1469.06 -918.37,-1377.56 -1245.59,-1876.15 0,0 0,0 0,0 250.19,66.74 387.3,363.06 1046.7,470.98 0,0 0,0 0,0 499.2,81.69 961.22,-56.22 1303.72,-284.81 0,0 0,0 0,0 1045.44,-697.77 1179.04,-1401.81 1332.14,-1622.34 0,0 0,0 0,0 616.14,719.86 1107.7,141.69 1606.49,335.88z"/>
   <path class="fil1 str0" d="M8648.97 17142.65c252.51,90.81 181,164.52 495.61,77.47 0,0 0,0 0,0 -136.34,219.85 -316.09,328.32 -539.47,145.86 0,0 0,0 0,0 0,0 43.86,-223.33 43.86,-223.33z"/>
   <path class="fil1 str0" d="M3359.06 15617.9c398.08,25.4 779.13,195.91 976.66,417.74 0,0 0,0 0,0 -212.4,-66.24 -300.48,-147.18 -508.05,-224.49 0,0 0,0 0,0 -227.05,-84.55 -303.59,-58.22 -468.61,-193.25z"/>
   <path class="fil1 str0" d="M6035.88 9845.75c21.14,117.44 1.51,261.15 -74.36,474.88 0,0 0,0 0,0 -95.19,268.13 -138.03,230.06 -63.58,-33.11 0,0 0,0 0,0 148.92,-526.14 -8.76,-1110.64 -782.17,-103.13 0,0 0,0 0,0 -274.08,357.04 -354.71,680.33 -512.03,823.39 0,0 0,0 0,0 0,0 26.83,-439.92 26.83,-439.92 0,0 0,0 0,0 -139.55,82.01 -135.73,100.23 -256.74,190.09 0,0 0,0 0,0 90.46,-262.39 184.81,-337.92 419.29,-181.76 0,0 0,0 0,0 67.03,-245.56 423.12,-748.4 815.7,-965.28 0,0 0,0 0,0 250.55,-138.43 373.01,-65.38 427.06,234.84z"/>
   <path class="fil1 str0" d="M3962.38 10377.61c302.56,143.29 236.2,406.37 234.92,789.61 0,0 0,0 0,0 -1.36,400.4 -153.04,2233.79 -421.12,2564.11 0,0 0,0 0,0 98.88,-962.58 592.73,-2510.35 186.2,-3353.72z"/>
   <path class="fil1 str0" d="M5971.76 14067.55c-666.35,852.96 -549.35,854.41 -657.05,2012.27 0,0 0,0 0,0 -221.82,-459.05 64.23,-1309.78 358.5,-1775.87 0,0 0,0 0,0 167.48,-265.28 181.93,-293.17 364.68,-346.6 0,0 0,0 0,0 -39.68,80.61 0.83,24.49 -66.13,110.2z"/>
   <path class="fil1 str0" d="M2754.1 15786.2c780.43,164.02 1225.64,1006.3 242.05,1229.34 0,0 0,0 0,0 -265.23,60.14 -407.07,52.96 -633.5,252.57 0,0 0,0 0,0 -1200.88,-701.16 -551.12,-1948.99 80.43,-1512 0,0 0,0 0,0 -242.29,55.76 -227.29,28.43 -331.2,158.66 0,0 0,0 0,0 93.97,165.26 -8.51,98.73 237.03,186.86 0,0 0,0 0,0 73.73,26.47 628.99,191.42 551.54,-76.18 0,0 0,0 0,0 0,0 -146.35,-239.25 -146.35,-239.25z"/>
   <path class="fil1 str0" d="M3500.48 14917.32c-82.21,247.47 -168.57,663.23 -430.76,714.34 0,0 0,0 0,0 -313.36,-57.61 -232.12,-1288.68 409.58,-1790.6 0,0 0,0 0,0 0,0 277.7,174.69 277.7,174.69 0,0 0,0 0,0 -83.2,272.71 -167.29,632.99 -256.52,901.57z"/>
   <path class="fil1 str0" d="M3488.57 10968.9c0.03,0.46 -0.37,0.71 0,0z"/>
   <path class="fil1 str0" d="M5682.05 10941.82c120.76,-532.31 469.59,-325.04 0,0z"/>
   <path class="fil1 str0" d="M6331.81 10748.53c-147.48,-214.42 -68.08,-180.34 -322.23,-123.43 0,0 0,0 0,0 -45.04,10.09 -54.27,-40.6 -16.14,-55.1 0,0 0,0 0,0 137.75,-52.4 181.72,-52.02 289.33,-48.3 0,0 0,0 0,0 125.82,4.33 65.78,72.38 49.04,226.83z"/>
   <path class="fil1 str0" d="M4928.69 7647.14c283.34,-138.17 1439.74,-140.44 1804.68,-76.45 0,0 0,0 0,0 -273.21,66.13 -1499.99,112.82 -1804.68,76.45z"/>
   <path class="fil1 str0" d="M11959.23 19065.44c28.29,195.45 22.37,567.49 -47.17,722.52 0,0 0,0 0,0 0,0 -69.01,-311.63 -69.01,-311.63 0,0 0,0 0,0 -46.07,-1287.54 -679.51,-674.03 -1395.46,-720.88 0,0 0,0 0,0 256.17,-221.83 1394.35,-500.18 1511.64,309.99z"/>
   <path class="fil1 str0" d="M9517.04 19847.14c-323.63,523.69 -850.11,1281.31 -1484.08,1467.75 0,0 0,0 0,0 91.34,-165.6 266.92,-272.54 408.14,-383.4 0,0 0,0 0,0 372.02,-292.04 855.65,-979.92 1075.94,-1084.35z"/>
   <path class="fil1 str0" d="M7483.73 20278.12c62.9,-124.04 43.94,-83.8 101.16,-156.19 0,0 0,0 0,0 -21.42,284.81 -307.04,1145.3 -590.11,1293.06 0,0 0,0 0,0 0,0 488.95,-1136.87 488.95,-1136.87z"/>
   <path class="fil1 str0" d="M6760.94 19961.85c230.26,-445.23 224.59,-592.39 462.91,-664.14 0,0 0,0 0,0 -262.86,565.8 -1332.53,2495.28 -2057.16,2413.84 0,0 0,0 0,0 236.88,-210.8 115.03,-10.38 600.85,-486.48 0,0 0,0 0,0 317.66,-311.27 793.07,-875.84 993.4,-1263.22z"/>
   <path class="fil1 str0" d="M2782.78 14914.34c-21.97,181.07 28.95,488.12 -9.79,563.43 0,0 0,0 0,0 -200.92,-333.14 2.8,-1036.69 112.63,-1291.52 0,0 0,0 0,0 156.63,-363.5 310.01,-742.19 736.8,-772.42 0,0 0,0 0,0 -244.76,194.34 -448.49,172.36 -691.38,879.47 0,0 0,0 0,0 -57.8,168.26 -127.25,447.71 -148.26,621.04z"/>
   <path class="fil1 str0" d="M2892.67 11820.98c-60.85,430.2 -611.03,1222.59 -485,2790.65 0,0 0,0 0,0 19.78,246.19 190.07,670.16 139.47,803.33 0,0 0,0 0,0 -491.76,-563.69 -151.87,-2745.02 236.75,-3461.88 0,0 0,0 0,0 81.25,-149.9 74.54,-101.76 108.78,-132.1z"/>
   <path class="fil1 str0" d="M3130.08 11405.45c-47.76,267.11 -141.41,348.07 -237.41,415.53 0,0 0,0 0,0 31.49,-204.66 82.98,-304.99 237.41,-415.53z"/>
   <path class="fil1 str0" d="M3423.57 10988.21c-35.11,145.01 -96.46,219.78 -198.62,332.71 0,0 0,0 0,0 -57.56,65.66 -59.23,57.42 -94.87,84.53 0,0 0,0 0,0 35.62,-168.97 142,-332.88 293.49,-417.24z"/>
   <path class="fil1 str0" d="M3823.85 10593.06c-44.29,188.58 -277.27,270.21 -335.28,375.84 0,0 0,0 0,0 -0.08,-1.53 -5.26,-5.38 -65,19.31 0,0 0,0 0,0 104.25,-255 167.89,-256.5 400.28,-395.15z"/>
   <path class="fil1 str0" d="M1620.81 15120.01c137.82,-42.52 330.6,-58.43 462.09,4.4 0,0 0,0 0,0 117.96,56.37 28.65,18.01 102.5,102.9 0,0 0,0 0,0 -890.25,-135.93 -1288.83,589.21 -1137.26,1517.72 0,0 0,0 0,0 173.3,1061.64 1022.61,1110.93 1335.27,1380.81 0,0 0,0 0,0 -1760.47,-259.99 -1885.82,-2659.38 -762.6,-3005.83z"/>
   <path class="fil1 str0" d="M10013.04 19605.58c405.26,116.22 909.09,79.53 1369.04,67.25 0,0 0,0 0,0 -71.14,78.36 -4.86,124.52 -358.31,144.55 0,0 0,0 0,0 -268.5,15.21 -883.37,50.59 -1010.73,-211.8z"/>
   <path class="fil1 str0" d="M10841.28 20069.6c202.42,95.09 161.12,206.2 312.91,398.85 0,0 0,0 0,0 0,0 1097.1,1100.74 1097.1,1100.74 0,0 0,0 0,0 938.78,941.04 287.24,1811.53 -211.87,1644.96 0,0 0,0 0,0 102.01,-84.95 343.57,-246.13 369.83,-272.99 0,0 0,0 0,0 784.85,-802.56 -878.26,-1807.13 -1328.88,-2394.03 0,0 0,0 0,0 -132.03,-171.99 -138.93,-276.88 -239.09,-477.53z"/>
   <path class="fil1 str0" d="M2159.54 17599.29c30.85,35.39 91.97,95.25 176.25,217.69 0,0 0,0 0,0 -212.43,-114.13 -167.96,3.18 -176.25,-217.69z"/>
  </g>
 </g>
</svg>
