<svg width="44" height="44" viewBox="0 0 44 44" fill="none" xmlns="http://www.w3.org/2000/svg">
<path d="M22 30.9375C25.797 30.9375 28.875 27.8595 28.875 24.0625C28.875 20.2655 25.797 17.1875 22 17.1875C18.203 17.1875 15.125 20.2655 15.125 24.0625C15.125 27.8595 18.203 30.9375 22 30.9375Z" stroke="#0075FD" stroke-width="1.5" stroke-linecap="round" stroke-linejoin="round"/>
<path d="M33.6875 19.9375C35.2889 19.9348 36.8688 20.3064 38.3012 21.0226C39.7336 21.7388 40.9788 22.7798 41.9375 24.0625" stroke="#0075FD" stroke-width="1.5" stroke-linecap="round" stroke-linejoin="round"/>
<path d="M2.0625 24.0625C3.02122 22.7798 4.26642 21.7388 5.69879 21.0226C7.13116 20.3064 8.71106 19.9348 10.3125 19.9375" stroke="#0075FD" stroke-width="1.5" stroke-linecap="round" stroke-linejoin="round"/>
<path d="M12.0996 37.125C13.0051 35.2706 14.4132 33.7078 16.1635 32.6147C17.9138 31.5215 19.936 30.9419 21.9996 30.9419C24.0633 30.9419 26.0854 31.5215 27.8357 32.6147C29.586 33.7078 30.9941 35.2706 31.8996 37.125" stroke="#0075FD" stroke-width="1.5" stroke-linecap="round" stroke-linejoin="round"/>
<path d="M10.3122 19.9375C9.26833 19.9386 8.24569 19.6425 7.36379 19.084C6.48189 18.5254 5.77717 17.7274 5.33195 16.7832C4.88673 15.839 4.71941 14.7876 4.84955 13.7519C4.97968 12.7161 5.40188 11.7388 6.06683 10.9341C6.73178 10.1294 7.61201 9.5305 8.60466 9.20747C9.59732 8.88443 10.6614 8.85056 11.6726 9.10982C12.6838 9.36908 13.6003 9.91076 14.3151 10.6716C15.0299 11.4324 15.5134 12.3809 15.7091 13.4062" stroke="#0075FD" stroke-width="1.5" stroke-linecap="round" stroke-linejoin="round"/>
<path d="M28.291 13.4062C28.4867 12.3809 28.9702 11.4324 29.685 10.6716C30.3998 9.91076 31.3163 9.36908 32.3275 9.10982C33.3387 8.85056 34.4028 8.88443 35.3954 9.20747C36.3881 9.5305 37.2683 10.1294 37.9333 10.9341C38.5982 11.7388 39.0204 12.7161 39.1506 13.7519C39.2807 14.7876 39.1134 15.839 38.6682 16.7832C38.2229 17.7274 37.5182 18.5254 36.6363 19.084C35.7544 19.6425 34.7318 19.9386 33.6879 19.9375" stroke="#0075FD" stroke-width="1.5" stroke-linecap="round" stroke-linejoin="round"/>
</svg>
