<svg width="145" height="145" viewBox="0 0 145 145" fill="none" xmlns="http://www.w3.org/2000/svg">
<path d="M132.803 39.8914C132.554 39.0015 132.617 38.6445 132.453 38.3213C116.869 19.4375 97.0569 8.02029 72.4122 6.24556C66.1901 5.78201 59.9772 6.93933 54.0805 9.44007C41.3955 14.6903 33.9476 27.0399 35.1622 40.6483C35.755 47.7443 37.5633 54.4275 42.3368 59.9737C45.6981 59.9365 49.0425 59.7859 52.2103 60.0092C57.3765 60.3983 61.8537 62.3965 65.0448 66.672C67.4822 69.7852 67.9889 73.186 66.4419 75.2705C64.4114 78.0064 61.2313 78.4802 58.3995 77.3957C54.4611 75.8966 50.6823 73.9103 47.1137 71.7768C44.816 70.3809 42.7746 68.3675 40.767 66.5808C28.2201 70.4199 24.5755 83.3617 32.0752 97.0766C33.96 97.2593 35.9583 97.4252 37.86 97.7212C44.8987 98.9902 50.6345 102.423 54.0328 108.869C55.3299 111.341 56.0928 114.125 54.0455 116.747C52.4816 118.718 49.3015 119.192 45.8511 117.852C40.4147 115.649 36.2352 111.753 32.4594 107.448C31.1839 105.9 29.9084 104.352 28.7464 102.787C9.20844 108.015 -2.22352 127.911 8.32755 144.184C6.83418 144.291 5.60174 144.59 4.85273 144.238C3.97326 143.79 3.33319 142.611 2.95404 141.624C-0.298662 132.259 -0.497068 123.135 5.4469 114.717C9.84387 108.384 15.6468 103.696 22.5441 100.119C23.5156 99.6264 24.4871 99.1341 25.4418 98.5283C25.5554 98.5114 25.6352 98.2678 25.9083 97.7636C25.6428 96.7603 25.457 95.5133 25.0441 94.3002C20.396 79.4651 23.3025 70.9208 36.4524 61.7774C35.7955 60.4847 35.1047 58.9654 34.3173 57.5763C30.064 49.2874 28.5364 40.5924 30.1721 31.3104C32.7975 16.2029 43.7924 5.06304 59.3139 1.70781C67.7476 -0.12801 76.1446 0.127433 84.5509 2.00376C104.86 6.62607 121.789 16.6187 134.406 33.5111C135.109 34.3333 135.716 35.2859 136.419 36.1082C136.549 36.2046 136.793 36.2842 137.525 36.5227C137.86 32.5331 136.978 28.9563 136.211 25.3626C135.574 21.8653 134.693 18.2886 133.891 14.4681C136.895 14.3683 138.267 15.7861 139.236 17.6117C140.255 19.7774 141.501 21.9093 141.953 24.1596C143.092 30.2472 144.134 36.4652 144.722 42.7508C145.108 47.676 142.698 49.4255 138.402 47.8639C129.305 44.4682 120.191 40.9591 111.077 37.4501C109.596 36.8596 108.308 36.0085 106.533 34.9984C108.71 32.4723 110.663 33.1085 112.485 33.6482C119.09 35.9086 125.646 37.829 132.803 39.8914ZM50.1316 113.854C47.9441 106.184 42.2206 102.054 35.1282 102.763C39.3123 107.47 43.122 112.001 50.1316 113.854ZM62.0276 72.9154C59.4411 66.4639 54.4252 63.9666 47.5985 65.6789C51.8746 69.4452 55.8392 72.6785 62.0276 72.9154Z" fill="#55ACEE"/>
</svg>
