<svg width="132" height="160" viewBox="0 0 132 160" fill="none" xmlns="http://www.w3.org/2000/svg">
<path d="M112.997 128.426L111.551 139.389C111.515 139.652 111.398 139.898 111.218 140.094C111.038 140.289 110.802 140.425 110.542 140.482C110.282 140.539 110.011 140.516 109.765 140.415C109.519 140.314 109.31 140.14 109.166 139.916L103.232 130.585C103.129 130.425 102.992 130.288 102.831 130.186C102.67 130.083 102.489 130.017 102.299 129.991L91.3365 128.545C91.073 128.509 90.8271 128.392 90.6316 128.212C90.4361 128.031 90.3006 127.796 90.2431 127.536C90.1857 127.276 90.2091 127.005 90.3103 126.759C90.4114 126.513 90.5854 126.304 90.8089 126.16L100.14 120.226C100.3 120.123 100.437 119.986 100.539 119.825C100.642 119.664 100.709 119.483 100.734 119.293L102.18 108.33C102.217 108.067 102.333 107.821 102.513 107.626C102.694 107.43 102.93 107.295 103.189 107.237C103.449 107.18 103.72 107.203 103.966 107.304C104.212 107.405 104.421 107.579 104.566 107.803L110.5 117.134C110.603 117.294 110.739 117.431 110.9 117.533C111.061 117.636 111.243 117.703 111.432 117.728L122.395 119.174C122.658 119.21 122.904 119.327 123.1 119.507C123.295 119.688 123.431 119.924 123.488 120.183C123.546 120.443 123.522 120.714 123.421 120.96C123.32 121.206 123.146 121.415 122.922 121.56L113.591 127.493C113.431 127.597 113.294 127.733 113.192 127.894C113.089 128.055 113.023 128.237 112.997 128.426Z" fill="#FFC27A"/>
<path d="M19.5023 24.6796L16.8023 32.0062C16.7224 32.2215 16.5785 32.4072 16.3899 32.5383C16.2014 32.6694 15.9772 32.7397 15.7476 32.7397C15.5179 32.7397 15.2938 32.6694 15.1052 32.5383C14.9167 32.4072 14.7728 32.2215 14.6929 32.0062L11.9929 24.6796C11.9359 24.525 11.8461 24.3846 11.7295 24.268C11.613 24.1515 11.4725 24.0616 11.3179 24.0046L3.99133 21.3046C3.77603 21.2247 3.59035 21.0808 3.45922 20.8923C3.3281 20.7038 3.25781 20.4796 3.25781 20.25C3.25781 20.0203 3.3281 19.7962 3.45922 19.6076C3.59035 19.4191 3.77603 19.2752 3.99133 19.1953L11.3179 16.4953C11.4725 16.4383 11.613 16.3484 11.7295 16.2319C11.8461 16.1154 11.9359 15.9749 11.9929 15.8203L14.6929 8.49371C14.7728 8.27841 14.9167 8.09273 15.1052 7.9616C15.2938 7.83048 15.5179 7.76019 15.7476 7.76019C15.9772 7.76019 16.2014 7.83048 16.3899 7.9616C16.5785 8.09273 16.7224 8.27841 16.8023 8.49371L19.5023 15.8203C19.5592 15.9749 19.6491 16.1154 19.7656 16.2319C19.8822 16.3484 20.0226 16.4383 20.1773 16.4953L27.5038 19.1953C27.7191 19.2752 27.9048 19.4191 28.0359 19.6076C28.1671 19.7962 28.2373 20.0203 28.2373 20.25C28.2373 20.4796 28.1671 20.7038 28.0359 20.8923C27.9048 21.0808 27.7191 21.2247 27.5038 21.3046L20.1773 24.0046C20.0226 24.0616 19.8822 24.1515 19.7656 24.268C19.6491 24.3846 19.5592 24.525 19.5023 24.6796Z" fill="#7302FF"/>
<path d="M24.75 2.25V9" stroke="#7302FF" stroke-width="2.25" stroke-linecap="round" stroke-linejoin="round"/>
<path d="M28.125 5.625H21.375" stroke="#7302FF" stroke-width="2.25" stroke-linecap="round" stroke-linejoin="round"/>
<path d="M31.5 10.125V14.625" stroke="#7302FF" stroke-width="2.25" stroke-linecap="round" stroke-linejoin="round"/>
<path d="M33.75 12.375H29.25" stroke="#7302FF" stroke-width="2.25" stroke-linecap="round" stroke-linejoin="round"/>
<circle cx="37.5" cy="142.5" r="17.5" fill="#7302FF"/>
</svg>
