<svg width="50" height="50" viewBox="0 0 50 50" fill="none" xmlns="http://www.w3.org/2000/svg">
<path d="M30.9954 29.4258L29.5498 40.3888C29.5132 40.6522 29.3969 40.8982 29.2165 41.0937C29.0361 41.2892 28.8001 41.4247 28.5404 41.4822C28.2807 41.5396 28.0096 41.5162 27.7636 41.415C27.5175 41.3139 27.3084 41.1399 27.1641 40.9164L21.2302 31.5855C21.1271 31.4249 20.9904 31.2885 20.8294 31.1859C20.6685 31.0832 20.4872 31.0167 20.298 30.9909L9.33507 29.5453C9.07158 29.5087 8.82559 29.3924 8.63013 29.212C8.43468 29.0316 8.29912 28.7956 8.24168 28.5359C8.18424 28.2762 8.20766 28.0051 8.3088 27.7591C8.40994 27.513 8.58395 27.3039 8.80746 27.1596L18.1383 21.2257C18.299 21.1226 18.4353 20.9859 18.538 20.8249C18.6406 20.664 18.7071 20.4827 18.7329 20.2935L20.1786 9.33058C20.2151 9.06709 20.3314 8.8211 20.5118 8.62564C20.6923 8.43018 20.9282 8.29463 21.1879 8.23719C21.4476 8.17975 21.7187 8.20317 21.9648 8.30431C22.2108 8.40545 22.42 8.57946 22.5642 8.80297L28.4981 18.1338C28.6012 18.2945 28.738 18.4308 28.8989 18.5335C29.0599 18.6361 29.2412 18.7026 29.4303 18.7284L40.3933 20.1741C40.6567 20.2106 40.9027 20.3269 41.0982 20.5073C41.2936 20.6878 41.4292 20.9237 41.4866 21.1834C41.5441 21.4431 41.5207 21.7142 41.4195 21.9603C41.3184 22.2063 41.1444 22.4155 40.9209 22.5597L31.59 28.4936C31.4294 28.5967 31.293 28.7335 31.1904 28.8944C31.0877 29.0554 31.0212 29.2367 30.9954 29.4258Z" fill="#FFC27A"/>
</svg>
