<svg width="44" height="45" viewBox="0 0 44 45" fill="none" xmlns="http://www.w3.org/2000/svg">
<rect x="0.67041" y="0.670166" width="42.9383" height="43.7051" rx="7.66756" fill="white"/>
<path d="M22.5228 27.3469C21.43 26.716 20.1905 26.3839 18.9286 26.3839C17.6668 26.3839 16.4272 26.716 15.3345 27.3469V16.9638C16.4272 16.3329 17.6668 16.0007 18.9286 16.0007C20.1905 16.0007 21.43 16.3329 22.5228 16.9638M22.5228 27.3469C23.6156 26.716 24.8552 26.3839 26.117 26.3839C27.3788 26.3839 28.6184 26.716 29.7111 27.3469V16.9638C28.6184 16.3329 27.3788 16.0007 26.117 16.0007C24.8552 16.0007 23.6156 16.3329 22.5228 16.9638M22.5228 27.3469V16.9638" stroke="#01ABFF" stroke-width="1.59741" stroke-linecap="round" stroke-linejoin="round"/>
</svg>
