<svg width="36" height="36" viewBox="0 0 36 36" fill="none" xmlns="http://www.w3.org/2000/svg">
<path d="M19.5032 24.6797L16.8032 32.0063C16.7233 32.2216 16.5794 32.4072 16.3909 32.5384C16.2024 32.6695 15.9782 32.7398 15.7486 32.7398C15.5189 32.7398 15.2948 32.6695 15.1062 32.5384C14.9177 32.4072 14.7738 32.2216 14.6939 32.0063L11.9939 24.6797C11.9369 24.525 11.847 24.3846 11.7305 24.2681C11.614 24.1515 11.4735 24.0617 11.3189 24.0047L3.99231 21.3047C3.77701 21.2248 3.59132 21.0809 3.4602 20.8923C3.32907 20.7038 3.25879 20.4797 3.25879 20.25C3.25879 20.0204 3.32907 19.7962 3.4602 19.6077C3.59132 19.4191 3.77701 19.2752 3.99231 19.1953L11.3189 16.4953C11.4735 16.4383 11.614 16.3485 11.7305 16.2319C11.847 16.1154 11.9369 15.975 11.9939 15.8203L14.6939 8.49376C14.7738 8.27846 14.9177 8.09277 15.1062 7.96165C15.2948 7.83052 15.5189 7.76024 15.7486 7.76024C15.9782 7.76024 16.2024 7.83052 16.3909 7.96165C16.5794 8.09277 16.7233 8.27846 16.8032 8.49376L19.5032 15.8203C19.5602 15.975 19.6501 16.1154 19.7666 16.2319C19.8832 16.3485 20.0236 16.4383 20.1782 16.4953L27.5048 19.1953C27.7201 19.2752 27.9058 19.4191 28.0369 19.6077C28.168 19.7962 28.2383 20.0204 28.2383 20.25C28.2383 20.4797 28.168 20.7038 28.0369 20.8923C27.9058 21.0809 27.7201 21.2248 27.5048 21.3047L20.1782 24.0047C20.0236 24.0617 19.8832 24.1515 19.7666 24.2681C19.6501 24.3846 19.5602 24.525 19.5032 24.6797V24.6797Z" fill="#7302FF"/>
<path d="M24.7485 2.25V9" stroke="#7302FF" stroke-width="2.25" stroke-linecap="round" stroke-linejoin="round"/>
<path d="M28.1235 5.625H21.3735" stroke="#7302FF" stroke-width="2.25" stroke-linecap="round" stroke-linejoin="round"/>
<path d="M31.4985 10.125V14.625" stroke="#7302FF" stroke-width="2.25" stroke-linecap="round" stroke-linejoin="round"/>
<path d="M33.7485 12.375H29.2485" stroke="#7302FF" stroke-width="2.25" stroke-linecap="round" stroke-linejoin="round"/>
</svg>
